<svg width="120" height="120" xmlns="http://www.w3.org/2000/svg">
  <g stroke="#000000" stroke-width="2" stroke-linecap="round" fill="#ffffff">
    <path d="M 115 60 Q 123.751 47.3191, 110.813 38.9524 Q 114.046 23.8879, 98.8909 21.1091 Q 96.1121 5.95448, 81.0476 9.18663 Q 72.6809 -3.75104, 60 5 Q 47.3191 -3.75104, 38.9524 9.18663 Q 23.8879 5.95448, 21.1091 21.1091 Q 5.95448 23.8879, 9.18663 38.9524 Q -3.75104 47.3191, 5 60 Q -3.75104 72.6809, 9.18663 81.0476 Q 5.95448 96.1121, 21.1091 98.8909 Q 23.8879 114.046, 38.9524 110.813 Q 47.3191 123.751, 60 115 Q 72.6809 123.751, 81.0476 110.813 Q 96.1121 114.046, 98.8909 98.8909 Q 114.046 96.1121, 110.813 81.0476 Q 123.751 72.6809, 115 60" />
  </g>
  <g fill="#000000">
    <circle cx="43" cy="55" r="6" />
    <circle cx="77" cy="55" r="6" />
    <circle cx="60" cy="73" r="8" />
  </g>
  <g stroke="#000000" stroke-width="3" stroke-linecap="round">
    <path d="M 40 80 Q 43 85, 50 85" fill="transparent" />
    <path d="M 80 80 Q 77 85, 70 85" fill="transparent" />
    <path d="M 50 85 Q 57 85, 60 80 Q 63 85, 70 85 C 70 100, 50 100, 50 85" fill="#dc143c" />
  </g>
</svg>
